<svg width="20" height="20" viewBox="0 0 20 20" fill="none" xmlns="http://www.w3.org/2000/svg">
<path d="M7.38462 2.93971C4.24728 4.13883 1.71132 6.34369 0.600638 8.83814C-0.104915 10.4228 -0.19053 12.0051 0.35256 13.4144C1.3129 15.9055 4.12634 17.4533 7.6951 17.4533C9.30503 17.4533 11.0065 17.1286 12.6154 16.5136C15.7525 15.3147 18.2884 13.1099 19.3991 10.6157C20.1049 9.03103 20.1906 7.44843 19.6475 6.03939C18.6869 3.54778 15.8737 2 12.3047 2C10.6945 2 8.99326 2.32493 7.38462 2.93971Z" fill="url(#paint0_linear)"/>
<path d="M16.2696 11.4113C16.2696 11.7865 15.9738 12.0908 15.6089 12.0908C15.244 12.0908 14.9482 11.7865 14.9482 11.4113C14.9482 11.0361 15.244 10.7318 15.6089 10.7318C15.9738 10.7318 16.2696 11.0361 16.2696 11.4113Z" fill="#F3ED0E"/>
<path d="M13.9191 7.95541C13.9191 7.61733 13.6702 7.38937 13.336 7.37261C13.3342 7.37261 13.2878 7.36642 13.2236 7.36642C12.609 7.36642 9.40956 7.36667 8.73469 7.36667C8.65578 7.36667 8.64392 7.36693 8.60008 7.36771C8.36258 7.37183 8.19057 7.49561 8.09181 7.69263C8.05596 7.75555 8.03378 7.8079 8.03378 7.8079L7.05978 10.0079C7.05978 10.0079 6.1781 8.01317 6.14561 7.9389C6.11466 7.86747 6.08423 7.80765 6.08423 7.80765C5.93466 7.4951 5.74667 7.36667 5.50813 7.36667C5.28481 7.36667 5.10404 7.45925 4.93487 7.79501C4.93487 7.79501 4.91115 7.84426 4.87736 7.91647C4.84358 7.98867 3.95081 10.0066 3.95081 10.0066L3.02271 7.91441L2.97913 7.82931C2.85148 7.55209 2.69933 7.38395 2.40561 7.36719C2.1908 7.35455 1.98785 7.47988 1.88367 7.66246C1.83132 7.75401 1.76117 7.93684 1.88263 8.24681C1.89398 8.27621 1.89914 8.28988 1.92493 8.34816C2.14128 8.83529 3.10317 10.9968 3.34531 11.542C3.37084 11.6018 3.39818 11.65 3.42448 11.698C3.55342 11.9339 3.73626 12.0631 3.95158 12.0631C4.17465 12.0631 4.35619 11.9443 4.49545 11.6962C4.52691 11.64 4.58571 11.5064 4.58571 11.5064L5.50916 9.41732C5.50916 9.41732 6.44835 11.5415 6.47027 11.5858C6.49245 11.6307 6.51334 11.6694 6.55176 11.7349C6.66884 11.935 6.81506 12.0631 7.05901 12.0631C7.31147 12.0631 7.43267 11.9339 7.5678 11.7315C7.58508 11.7055 7.61886 11.6441 7.65651 11.5667C7.69751 11.4824 8.99799 8.54878 8.99799 8.54878L10.513 8.54904L10.5133 11.354L10.5174 11.4445C10.5267 11.788 10.7861 12.0644 11.1162 12.0644C11.4576 12.0644 11.6913 11.7955 11.7044 11.4432L11.7085 11.3496V8.55162C11.7085 8.55162 13.122 8.55059 13.2236 8.55085C13.2888 8.55085 13.3043 8.54982 13.3303 8.54801C13.6589 8.53873 13.9191 8.29271 13.9191 7.95541ZM18.041 11.0458L18.0036 10.9772L16.1855 7.78418L16.1273 7.69134C16.0019 7.49355 15.8431 7.36745 15.6174 7.36255H15.6172C15.3915 7.36745 15.2273 7.49897 15.1019 7.70243L15.0413 7.79733L13.2352 10.9563L13.1777 11.0569C13.1013 11.2008 13.0425 11.3122 13.0425 11.4643C13.0425 11.8024 13.3009 12.0613 13.6279 12.0621C13.8443 12.0624 14.0232 11.9283 14.161 11.7176L14.213 11.6343L15.6174 9.12823L17.0203 11.6454L17.0621 11.7119C17.198 11.9267 17.3826 12.0624 17.5987 12.0621C17.926 12.0613 18.1849 11.805 18.1849 11.4669C18.1849 11.3148 18.1168 11.1879 18.041 11.0458Z" fill="white"/>
<defs>
<linearGradient id="paint0_linear" x1="4.90016e-05" y1="9.72675" x2="19.9999" y2="9.72675" gradientUnits="userSpaceOnUse">
<stop stop-color="#E30A6E"/>
<stop offset="0.79355" stop-color="#452A82"/>
<stop offset="1" stop-color="#452A82"/>
</linearGradient>
</defs>
</svg>
