<svg width="50" height="50" viewBox="0 0 50 50" fill="none" xmlns="http://www.w3.org/2000/svg">
<path d="M18.5001 4H15.0001V40.75H18.5001V4Z" fill="white"/>
<path d="M20.2501 35.8501V39.0001C20.2501 40.9251 18.6751 42.5001 16.75 42.5001C14.825 42.5001 13.25 40.9251 13.25 39.0001V35.8501C10.1 36.55 8 38.4751 8 40.75C8 43.7251 11.675 46 16.75 46C21.8251 46 25.5001 43.7251 25.5001 40.75C25.5001 38.4751 23.4001 36.725 20.2501 35.8501Z" fill="white"/>
<path d="M38.2001 13.1751L20.7 6.17502C19.475 5.65002 18.25 6.52505 18.25 7.75002V21.75C18.25 22.975 19.4749 23.85 20.7 23.325L38.2 16.3251C39.6 15.8001 39.6 13.7001 38.2001 13.1751Z" fill="white"/>
</svg>
