<svg width="34" height="34" viewBox="0 0 34 34" fill="none" xmlns="http://www.w3.org/2000/svg">
<path fill-rule="evenodd" clip-rule="evenodd" d="M15.8922 34C13.3163 33.8362 10.8121 33.0839 8.57178 31.8009C8.60389 31.6752 8.63222 31.5504 8.70494 31.4558C9.35 31.0209 9.09689 31.0682 9.43594 30.4518C9.50961 30.3156 9.85528 30.2523 9.96106 30.0528C10.1074 29.7786 10.0092 29.4099 10.1074 29.079C10.2822 28.4824 10.8942 26.7834 11.2408 26.2606C11.4674 25.9165 11.7253 25.8295 11.7423 25.8295C12.1654 26.5877 11.9727 26.4213 12.9398 26.8477C13.0532 26.8978 14.2148 28.7518 14.3565 28.975C14.8127 29.6907 14.9279 29.65 15.759 29.6396C16.0896 29.9743 16.1207 30.2315 16.0216 30.7912V31.3225C15.9687 31.4785 15.7571 31.5608 15.7004 31.7508C15.6173 32.0297 15.7477 32.3559 15.759 32.5781C15.7807 33.0517 15.7807 33.4838 15.8903 33.8487C15.8903 33.896 15.8903 33.9461 15.8922 34V34ZM6.50722 30.4083C2.54528 27.293 0 22.4543 0 17.018C0 7.61932 7.61128 0 17 0C26.3887 0 34 7.61932 34 17.018C34 25.8068 27.3445 33.0394 18.8039 33.9414C18.734 33.6332 18.5857 33.3287 18.6651 32.977C18.7274 32.6943 18.802 32.2897 18.8691 31.9872V31.3669L18.9418 31.1457V30.4366C18.989 30.2551 19.1033 29.7748 19.0145 29.4912C18.6839 28.9409 18.9701 28.472 18.5328 28.472C17.5742 27.173 17.8424 25.4324 15.5833 23.083C15.4483 22.8844 15.2159 21.7499 15.5833 21.5457C15.7892 21.4795 16.0216 21.7357 16.2992 21.7386C16.8819 21.1618 17.2097 18.3009 16.9263 17.5588C16.8319 17.3082 16.5287 17.173 16.3389 17.0719C15.9328 16.8553 16.2605 16.0489 16.5882 16.1586C16.9839 16.2928 17.7386 16.7939 17.9633 16.8941C18.7793 17.2562 19.3016 17.6732 19.7682 17.5805C20.1063 17.5134 21.5201 16.1983 21.6325 15.597C21.7052 15.215 21.6419 14.7007 21.6372 14.6723C21.7713 14.6468 22.0027 14.5872 22.1642 14.5513C22.1735 14.5494 22.1822 14.5456 22.1899 14.5401C22.1976 14.5345 22.2039 14.5274 22.2086 14.5192C22.2138 14.5112 22.2173 14.5021 22.2188 14.4927C22.2203 14.4832 22.2197 14.4735 22.2171 14.4643C22.0065 13.6607 21.981 13.5633 21.9791 12.6557C22.6468 12.2028 22.4183 12.2662 22.797 11.7254C22.8663 11.7122 22.9331 11.6886 22.9953 11.6554H26.2197V11.2612H26.5842V11.3926H27.4352V11.1988H29.3675V11.3926H29.6896V11.3075H30.6028V10.7648H29.6896V10.6797H29.3684V10.8726H27.4352V10.2212H26.8147V9.08097H26.5427V10.484H26.2197V10.1002H18.9201V9.8846H18.4289V9.20388H18.2401V9.59719H18.0512V10.1002H17.6564C17.3258 10.2354 16.7998 10.4254 16.3058 10.3271C16.2917 10.2968 16.2813 10.2136 16.3058 10.2042C16.5032 10.1229 16.4267 10.0699 16.3861 9.93754C16.3323 9.73536 16.3078 9.52649 16.3134 9.31733C16.4994 9.18403 16.7988 9.04505 17.0434 8.99305C17.6413 8.28018 17.0434 7.19482 16.9263 6.58501C16.7478 6.45075 16.6099 6.40254 16.3719 6.30516C14.2545 4.76598 11.2294 6.22574 12.1219 8.9193C12.1984 9.1481 12.3259 9.38068 12.3118 9.65675C11.7753 10.1323 11.9604 9.68795 11.6554 9.58395C10.7431 9.27006 9.96106 10.0094 9.55306 10.7402C8.34417 12.9053 8.97222 14.6638 8.61806 15.1214C8.48867 15.6414 7.42994 15.2301 7.20139 15.5355C7.191 15.5487 6.42317 18.8587 7.25239 19.0526C7.52344 19.1159 7.8625 19.1802 8.02872 19.2038C8.12694 19.218 8.20817 19.4733 8.21383 19.5933C8.11183 19.6406 7.57728 19.686 7.34494 19.773C6.96717 19.9157 7.46394 22.7247 7.46394 23.2295C7.37894 23.2834 7.26844 23.239 7.17117 23.2891C6.95394 23.4025 6.60261 24.5938 6.70272 25.2669C6.75183 25.5979 7.14378 25.5581 7.25994 25.6811C7.2165 26.7655 6.56483 28.2337 6.86517 29.27C7.01439 29.7852 6.75656 30.0121 6.54406 30.3478C6.53132 30.3676 6.51904 30.3878 6.50722 30.4083V30.4083Z" fill="#F9F9F9"/>
</svg>
