<svg width="50" height="50" viewBox="0 0 50 50" fill="none" xmlns="http://www.w3.org/2000/svg">
<path d="M16.108 0.75H16.0456L15.9906 0.779282C15.8889 0.833367 15.7882 0.88643 15.6887 0.938871C14.949 1.32872 14.2745 1.6842 13.7385 2.17008C13.1142 2.73587 12.6813 3.47135 12.4826 4.61951L12.3482 5.39672L12.9058 4.83886L14.7163 3.02755C15.2741 2.67782 15.7759 2.53859 16.2562 2.52095C16.7478 2.50289 17.2322 2.61158 17.7529 2.77817C17.9872 2.85312 18.2299 2.94071 18.4827 3.03195C19.2611 3.3129 20.1353 3.62845 21.1563 3.7163L21.1159 3.82904C20.5402 4.10114 19.8141 4.18312 19.0239 4.23946C18.9152 4.24722 18.8051 4.25448 18.6943 4.26179C17.982 4.30879 17.2371 4.35793 16.5978 4.55389L16.5216 4.57728L16.4729 4.64053L15.769 5.55606L16.0706 5.93605C16.6311 5.68133 17.2517 5.55889 17.8769 5.5804C18.498 5.60177 19.1029 5.76448 19.6385 6.05316C19.7697 6.14307 19.8293 6.22174 19.8586 6.28854C19.889 6.35758 19.8991 6.44096 19.886 6.56096C19.8726 6.68381 19.8382 6.82206 19.7934 7.00213L19.7912 7.01117C19.7467 7.18983 19.6955 7.39872 19.6618 7.63504L19.6376 7.805L19.7875 7.88863C20.3818 8.22014 21.072 8.36769 21.7598 8.31185L22.1853 8.27731L21.947 7.92312C21.6392 7.46562 21.627 7.0672 21.6217 6.61131C21.6216 6.60049 21.6215 6.58964 21.6214 6.57876C21.6172 6.19563 21.6125 5.76751 21.3883 5.30269C21.8229 5.09267 22.2138 4.80921 22.5406 4.46522C22.9312 4.05394 23.2204 3.56623 23.3861 3.03647L23.3975 3.00003V2.96185V2.56948V2.33328L23.1616 2.31988C21.6337 2.23311 20.6819 1.87136 19.7382 1.5127C19.7116 1.50258 19.685 1.49246 19.6584 1.48235C18.6767 1.10967 17.6887 0.75 16.108 0.75Z" fill="white" stroke="white" stroke-width="0.5"/>
<path d="M42.5765 4.67371L42.5513 4.6737L42.5266 4.67873L32.2498 6.77121L32.2489 6.77138L6.78982 11.8674C6.48094 11.8688 6.24256 11.8032 5.96305 11.7263C5.89122 11.7066 5.81668 11.6861 5.73753 11.6657C5.34407 11.5648 4.89452 11.4902 4.23693 11.6096L4.20536 11.6153L4.17627 11.6289L3.89469 11.7596L3.74263 11.8303L3.75026 11.9977C3.83091 13.7687 4.66298 15.2916 5.57373 16.7197C5.75629 17.006 5.94149 17.2879 6.12501 17.5672C6.86888 18.6994 7.58524 19.7897 7.98724 20.9613L8.04058 21.1167L8.20441 21.1294C9.33784 21.2171 10.1927 20.8313 10.8703 20.1842C11.5368 19.5478 12.0289 18.6617 12.4652 17.7511C12.6164 17.4354 12.7603 17.1185 12.9025 16.8053C13.1781 16.1981 13.4475 15.6049 13.7518 15.0616C14.2104 14.2429 14.7191 13.5965 15.3783 13.2546L15.8617 13.0039L15.3565 12.8008C14.4924 12.4533 13.7276 12.4517 13.0596 12.6922C12.3979 12.9305 11.8552 13.3975 11.4117 13.9465C10.5528 15.0098 10.0215 16.4393 9.70343 17.324L9.27231 17.6444L6.80213 13.9003C6.87247 13.6562 7.02885 13.4777 7.26045 13.3375C7.52987 13.1745 7.89445 13.0687 8.32197 12.9927C8.68192 12.9288 9.06718 12.8891 9.45605 12.8489C9.52757 12.8416 9.5992 12.8342 9.67082 12.8266C10.1243 12.7788 10.5796 12.7241 10.964 12.6201L10.9641 12.6204L10.9766 12.6163C14.8628 11.3421 18.8773 10.4349 22.9592 9.90815C25.3605 19.5649 23.6933 29.7135 18.2913 38.2705C16.3697 41.1889 13.6626 44.6545 11.2818 47.1263L11.2742 47.1342L11.2674 47.1427L10.845 47.6658L11.1402 48.0517C12.1206 47.6203 13.0274 46.8474 13.839 46.0142C14.4371 45.4003 14.9963 44.7395 15.4997 44.1448C15.6789 43.933 15.8511 43.7295 16.0155 43.5396L16.0156 43.5394C18.8767 40.2269 21.011 37.5019 22.6896 34.3008C24.3685 31.099 25.5854 27.4329 26.6301 22.2407C27.2173 19.6789 27.3612 17.0464 27.0563 14.4423L27.0555 14.4351L27.0542 14.4279C26.8922 13.5119 26.7267 12.5961 26.5613 11.6808L26.5613 11.6803C26.4105 10.8463 26.2599 10.0126 26.112 9.17909L42.1045 6.23337C42.9155 6.74873 43.4962 7.51606 43.7438 8.39224L43.7861 8.54168L43.9387 8.57004C44.4122 8.65801 44.7947 8.59368 45.1619 8.49153C45.2904 8.45577 45.4113 8.41762 45.5317 8.37958C45.7658 8.30566 45.9985 8.23215 46.2841 8.17741L46.5159 8.13298L46.4849 7.89905C46.3662 7.00339 45.8996 6.18309 45.1787 5.59067C44.4583 4.99861 43.5326 4.67384 42.5765 4.67371Z" fill="white" stroke="white" stroke-width="0.5"/>
<path d="M12.0251 6.10082L11.8464 5.92599C11.1148 6.6737 10.3014 7.34897 9.4191 7.94079C8.98061 7.91707 8.56583 7.75354 8.24515 7.48008L7.96811 7.24383L7.84713 7.58723C7.68608 8.04439 7.81945 8.49189 8.04776 8.8521C8.27588 9.21199 8.6156 9.51496 8.93683 9.7139L8.99732 9.75136H9.06846H10.8987H10.952L11.0007 9.72963C11.7509 9.39455 12.0941 8.7869 12.3938 8.2563C12.4221 8.20633 12.4499 8.15705 12.4777 8.10873C12.8039 7.5408 13.1323 7.06297 13.9161 6.86648L14.1053 6.81904V6.62398V6.49319V6.33366L13.9606 6.26645L13.6821 6.13706C13.1643 5.88001 12.5742 5.781 11.9944 5.85271L12.0251 6.10082Z" fill="white" stroke="white" stroke-width="0.5"/>
<path d="M15.4413 17.2306L14.8413 17.1755L15.2261 17.6392C16.4905 19.1629 17.2066 20.2216 17.5612 21.0445C17.909 21.8514 17.9061 22.4233 17.7281 22.993C17.6364 23.2869 17.496 23.586 17.3196 23.9245C17.2495 24.059 17.1709 24.2049 17.0877 24.3593C16.9694 24.5789 16.8418 24.8157 16.7164 25.0612C16.2767 25.9222 15.7998 27.009 15.4561 28.542L15.447 28.5828L15.4516 28.6244L15.8717 32.3969C15.798 33.7432 15.3287 35.0468 14.5125 36.166L14.4645 36.2319V36.3133V36.4441V36.8229L14.8128 36.674C15.6852 36.301 16.2658 35.8474 16.6488 35.3109C17.0312 34.7755 17.2012 34.179 17.2887 33.5488C17.3496 33.1106 17.372 32.6387 17.3951 32.1544C17.4047 31.9529 17.4144 31.7493 17.427 31.5451C17.4701 30.8475 17.5474 30.1148 17.7635 29.345L19.7215 25.707L19.7261 25.6985L19.73 25.6897C20.5882 23.7506 20.5318 21.7337 19.7484 20.1481C18.9633 18.5589 17.4526 17.4154 15.4413 17.2306Z" fill="white" stroke="white" stroke-width="0.5"/>
<path d="M26.2974 32.6073L26.0634 32.3678L25.9002 32.6602L23.9292 36.1915L23.8856 36.2695L23.9014 36.3575L24.7444 41.056C24.9986 43.6902 24.9514 46.3421 24.6036 48.9672L24.5661 49.25H24.8514H25.133H25.3392L25.3784 49.0476C25.3967 48.9533 25.42 48.8351 25.4475 48.6951C25.706 47.3816 26.341 44.1551 26.7397 40.9266C26.9603 39.141 27.1097 37.3458 27.0817 35.8686C27.0677 35.1304 27.0092 34.4631 26.8899 33.9125C26.7721 33.3687 26.588 32.9049 26.2974 32.6073Z" fill="white" stroke="white" stroke-width="0.5"/>
</svg>
