<svg width="50" height="50" viewBox="0 0 50 50" fill="none" xmlns="http://www.w3.org/2000/svg">
<path fill-rule="evenodd" clip-rule="evenodd" d="M6 43.4232C5.99982 44.2371 6.15996 45.043 6.47128 45.795C6.78261 46.5469 7.23901 47.2302 7.81443 47.8058C8.38985 48.3813 9.07301 48.8379 9.8249 49.1494C10.5768 49.4609 11.3827 49.6212 12.1965 49.6212H35.9859C36.7998 49.6213 37.6058 49.461 38.3578 49.1496C39.1099 48.8381 39.7931 48.3816 40.3687 47.8061C40.9442 47.2305 41.4008 46.5472 41.7122 45.7952C42.0237 45.0432 42.1839 44.2372 42.1838 43.4232V6.11239C42.1838 2.69071 39.4097 -0.0841509 35.9859 0.00195107H12.1965C8.77417 -0.0841509 6 2.69071 6 6.11239V43.4232Z" fill="#1A3B73"/>
<path fill-rule="evenodd" clip-rule="evenodd" d="M12.1958 1.33128C10.9278 1.33128 9.71173 1.835 8.8151 2.73164C7.91847 3.62827 7.41473 4.84436 7.41473 6.11239V43.4232C7.41473 44.6914 7.91842 45.9076 8.81501 46.8045C9.7116 47.7014 10.9277 48.2054 12.1958 48.2058H35.9852C37.2536 48.2058 38.47 47.7019 39.3669 46.805C40.2638 45.9081 40.7677 44.6916 40.7677 43.4232V6.11239C40.7676 5.48443 40.6438 4.86265 40.4034 4.28253C40.163 3.70241 39.8107 3.17531 39.3666 2.73135C38.9226 2.28738 38.3954 1.93523 37.8152 1.69501C37.235 1.45478 36.6132 1.33119 35.9852 1.33128H12.1958Z" fill="white"/>
<path fill-rule="evenodd" clip-rule="evenodd" d="M12.1958 2.05789C11.1205 2.05808 10.0893 2.48528 9.32884 3.24559C8.56841 4.00589 8.14103 5.03706 8.14066 6.11238V43.4232C8.14084 44.4988 8.5681 45.5303 9.32851 46.291C10.0889 47.0517 11.1203 47.4793 12.1958 47.4798H35.9852C36.5178 47.4797 37.0452 47.3747 37.5373 47.1708C38.0293 46.9669 38.4764 46.6681 38.8529 46.2914C39.2295 45.9147 39.5282 45.4675 39.7319 44.9754C39.9357 44.4833 40.0405 43.9559 40.0404 43.4232V6.11238C40.0405 5.57986 39.9356 5.05253 39.7319 4.56053C39.5281 4.06853 39.2294 3.6215 38.8528 3.24497C38.4762 2.86845 38.0291 2.56982 37.5371 2.36614C37.0451 2.16245 36.5177 2.05771 35.9852 2.05789H12.1958Z" fill="#1A3B73"/>
<path fill-rule="evenodd" clip-rule="evenodd" d="M16.1362 29.4915C18.5359 29.4915 20.4812 28.193 20.4812 25.2151C20.4812 22.3388 18.5359 20.9373 16.1362 20.9373C13.7352 20.9373 11.7898 22.3388 11.7898 25.2151C11.7898 28.1923 13.7359 29.4915 16.1362 29.4915Z" fill="white"/>
<path fill-rule="evenodd" clip-rule="evenodd" d="M19.4424 21.4042V19.594H18.2692C17.929 19.594 17.8156 19.4603 17.8156 19.0018V15.5717C17.8156 15.3148 17.8989 15.263 18.0508 15.263C18.4967 15.263 18.706 16.0365 18.706 16.9801L20.6723 16.9843V13.2911H11.7324V16.9836L13.6834 16.9794C13.6834 15.9784 14.0222 15.2623 14.438 15.2623C14.6186 15.2623 14.6732 15.3141 14.6732 15.571V19.0011C14.6732 19.4155 14.5612 19.5933 14.221 19.5933H13.0751V21.4035L19.4424 21.4042ZM17.091 44.5307V45.4687H11.8066V43.5079H12.4877C12.7013 43.5079 12.7432 43.3805 12.7432 43.195V39.3597C12.7432 39.2035 12.7146 39.0194 12.4877 39.0194H11.7492V37.0454H14.1216C13.0282 36.5904 12.7299 35.8652 12.7299 34.9985V31.3494C12.7299 31.1359 12.6873 31.0078 12.4457 31.0078L11.7646 31.0106V29.0169H20.7759V31.0106L20.0934 31.0078C19.8512 31.0078 19.8092 31.1366 19.8092 31.3494V34.9985C19.8092 35.9226 19.3633 36.8746 18.4253 37.1301C19.2919 37.3009 19.8036 37.7125 20.1494 38.5588C20.491 39.4121 20.1907 40.3061 19.5887 40.9312C19.4697 41.039 19.3178 41.1188 19.3178 41.1188C19.6692 41.2609 19.8715 41.8748 19.8715 42.5489L19.8988 43.4127C19.9163 43.5219 19.9779 43.5905 20.2432 43.5905L20.8886 43.5933V45.566H19.476C18.7522 45.566 17.46 45.4533 17.091 44.5307ZM13.647 10.8249C13.647 11.2435 13.654 11.3744 14.4702 11.4115V11.9001H11.7961V11.4115C12.3253 11.3744 12.5059 11.2547 12.5059 10.8249V8.91455C12.5059 8.48474 12.4989 8.37204 11.9634 8.32374V7.79943L12.863 7.85193C13.5042 7.85193 14.8097 7.60902 15.4292 7.97233C15.8296 8.20754 16.083 8.61075 16.083 9.03986C16.083 10.0668 15.0946 10.3216 14.1979 10.3216H13.6484V10.8249H13.647ZM19.8785 9.24776C19.6475 8.63735 19.3682 8.40914 18.5835 8.40914C17.7904 8.40914 17.5979 9.38566 17.5979 9.99398C17.5979 10.6555 17.9451 11.4654 18.7683 11.4654C19.1645 11.4654 19.3661 11.1742 19.3661 10.7689C19.3661 10.4413 19.0896 10.3174 18.7865 10.3174V9.88057H20.9726V10.3174L20.8865 10.3286C20.4532 10.3888 20.4903 10.5841 20.4903 10.9537V11.8574C20.4903 12.0303 20.2579 12.0674 20.001 11.9281L19.6671 11.7272C19.4865 11.8287 19.3633 11.9281 19.2051 11.9897C19.0042 12.0674 18.6269 12.0681 18.3973 12.0681C17.1247 12.0681 16.2902 11.1091 16.2902 9.94708C16.2902 8.73115 17.2212 7.80853 18.5093 7.80853C18.8565 7.80853 19.4004 7.92123 19.6986 8.08223L19.9695 7.85613H20.3657L20.3944 9.10006C20.3937 9.40316 20.0136 9.45496 19.8785 9.24776ZM25.5591 10.8655C25.7383 11.2393 25.7516 11.3387 26.2221 11.415L26.297 11.4206V11.9001H23.8098V11.4206C23.9533 11.4024 24.3775 11.415 24.3775 11.2337C24.3775 11.1518 24.3089 10.9992 24.2802 10.9173L24.0968 10.4847H22.6268L22.4357 10.9173C22.4014 10.9936 22.3538 11.1098 22.3538 11.1861C22.3538 11.3912 22.7297 11.3912 22.8935 11.415L22.9621 11.4206V11.9001H20.8508V11.4206C21.4507 11.3674 21.5823 11.0461 21.7861 10.631L23.1126 7.79593H24.1724L25.5591 10.8655Z" fill="white"/>
<path fill-rule="evenodd" clip-rule="evenodd" d="M13.871 8.37134C13.7135 8.37134 13.6428 8.42804 13.647 8.51064V9.62016H13.815C14.0474 9.62016 14.2525 9.61807 14.4135 9.54736C14.6116 9.46126 14.6459 9.23166 14.6459 9.03425C14.6459 8.52254 14.3498 8.37134 13.871 8.37134V8.37134ZM23.8721 9.97507L23.3667 8.84105L22.8403 9.97507H23.8721V9.97507Z" fill="#1A3B73"/>
<path fill-rule="evenodd" clip-rule="evenodd" d="M18.8971 20.9611V20.056H17.6462C17.418 20.056 17.2416 19.7921 17.2416 19.5282V15.0698C17.2416 14.8402 17.5412 14.7947 17.8583 14.7947C18.5107 14.7947 19.1792 15.3498 19.1792 16.5048L20.1977 16.5076V13.7188H12.2176V16.5076L13.2375 16.5048C13.2375 15.3498 13.906 14.7947 14.557 14.7947C14.8741 14.7947 15.1751 14.8395 15.1751 15.0698V19.5282C15.1751 19.7921 14.9987 20.056 14.7691 20.056H13.5182V20.9611H18.8971V20.9611ZM16.1362 29.0281C18.279 29.0281 20.0164 27.8689 20.0164 25.2095C20.0164 22.6419 18.279 21.3909 16.1362 21.3909C13.9935 21.3909 12.2561 22.6419 12.2561 25.2095C12.2561 27.8682 13.9942 29.0281 16.1362 29.0281Z" fill="#CF4044"/>
<path fill-rule="evenodd" clip-rule="evenodd" d="M16.1789 28.0229C17.0393 28.0229 17.7351 27.3131 17.7351 25.2088C17.7351 22.8288 17.0393 22.3941 16.1789 22.3941C15.3179 22.3941 14.6214 23.0122 14.6214 25.2088C14.6214 27.4979 15.3172 28.0229 16.1789 28.0229Z" fill="white"/>
<path fill-rule="evenodd" clip-rule="evenodd" d="M16.1706 27.4881C16.7159 27.4881 17.159 26.9141 17.159 25.2088C17.159 23.281 16.7159 22.9296 16.1706 22.9296C15.6238 22.9296 15.1821 23.4301 15.1821 25.2088C15.1821 27.0618 15.6238 27.4881 16.1706 27.4881Z" fill="#1A3B73"/>
<path fill-rule="evenodd" clip-rule="evenodd" d="M19.2828 31.0743C19.2828 30.6206 19.4907 30.5562 19.7189 30.5562H20.218L20.2096 29.4845H17.0239V30.552H17.6007C18.1761 30.552 18.1068 30.8131 18.1068 31.1443V35.093C18.055 35.5117 17.7008 36.001 16.6879 36.001C15.6749 36.001 15.2073 35.6006 15.2073 35.0398V31.075C15.2073 30.6213 15.4166 30.5569 15.6448 30.5569H16.3393V29.4852H12.2729V30.5527H12.709C13.2858 30.5527 13.2165 30.8138 13.2165 31.145V35.0755C13.2165 36.1403 14.2119 37.0664 16.4989 37.0664C18.9286 37.0664 19.2828 35.9233 19.2828 34.8487V31.0743V31.0743Z" fill="#CF4044"/>
<path fill-rule="evenodd" clip-rule="evenodd" d="M17.3024 31.0337C17.4445 31.0337 17.5419 31.194 17.5419 31.3921V34.8375C17.5419 35.2037 17.1547 35.5005 16.678 35.5005C16.2013 35.5005 15.8142 35.2037 15.8142 34.8375V31.3921C15.8142 31.194 15.9115 31.0337 16.0536 31.0337H17.3024V31.0337Z" fill="#1A3B73"/>
<path fill-rule="evenodd" clip-rule="evenodd" d="M20.3923 44.0274C20.085 44.0274 19.5831 44.0616 19.4445 43.8208C19.2135 43.2944 19.5033 42.3361 19.1708 41.718C19.0119 41.3764 18.6171 41.1818 18.363 41.0684C18.6668 40.9837 19.007 40.7933 19.252 40.6036C19.8603 40.0842 19.8645 39.0929 19.49 38.3656C19.1498 37.7972 18.552 37.5333 17.6399 37.5333L12.242 37.5249L12.2406 38.5707L12.9119 38.5567C13.0828 38.5567 13.269 38.7492 13.269 38.9501L13.2717 43.5891C13.2717 43.7914 13.0828 43.9825 12.9119 43.9825L12.2406 43.9699L12.242 45.0144H16.5828L16.5856 43.9699H15.7568C15.5846 43.9699 15.3781 43.7445 15.3781 43.5422L15.3753 41.6319H16.4869C16.8271 41.6319 17.168 41.8503 17.2282 42.4138C17.2744 43.1509 17.1883 43.5198 17.4445 44.1723C17.7848 44.8723 18.4183 45.0648 19.1001 45.0648H20.3923V44.0274V44.0274Z" fill="#CF4044"/>
<path fill-rule="evenodd" clip-rule="evenodd" d="M15.9192 43.195C15.9192 43.195 15.9192 43.0116 15.9192 43.195C15.9192 43.3812 16.0613 43.4372 16.1677 43.4372H16.7431L16.7144 42.5006C16.706 42.2437 16.664 42.145 16.4645 42.145H15.9325L15.9192 43.195Z" fill="#1A3B73"/>
<path fill-rule="evenodd" clip-rule="evenodd" d="M16.5044 38.5658C16.8978 38.5658 17.4698 38.7506 17.572 39.2287C17.628 39.6033 17.5937 39.9778 17.2947 40.283C17.154 40.4034 16.9062 40.4979 16.6164 40.4979H15.3767V38.5616L16.5044 38.5658V38.5658Z" fill="white"/>
<path fill-rule="evenodd" clip-rule="evenodd" d="M17.04 39.5662C17.04 39.8574 16.7775 40.0422 16.5577 40.0422H15.8821V39.0194H16.3868C16.6221 39.0194 16.7642 39.0754 16.8776 39.1846C16.9302 39.233 16.9719 39.2921 16.9999 39.3579C17.0279 39.4237 17.0416 39.4947 17.04 39.5662V39.5662Z" fill="#1A3B73"/>
<path fill-rule="evenodd" clip-rule="evenodd" d="M25.1328 4.57236L34.6881 10.589C34.3941 11.7244 35.2376 12.6708 34.8428 13.7552C34.7406 15.389 32.9667 15.7159 32.0042 16.7316C31.1089 17.6095 29.9216 17.7299 28.8541 18.1765L28.7351 18.1408C28.4768 17.2819 27.7194 16.6287 27.4086 15.7852C26.6351 15.4926 25.723 15.4226 24.983 15.8195C24.2956 16.3361 23.9169 17.1607 24.0366 17.9357C24.0527 18.726 24.8969 19.2783 25.4815 19.6213C24.724 20.1547 25.1727 21.2726 25.1027 21.9783C24.9823 24.3709 27.9084 25.3852 27.8209 27.7604C27.5983 29.3081 27.4436 31.0981 28.4418 32.3364C29.2496 32.9377 29.2321 33.9359 29.7312 34.6933C29.783 35.399 30.5748 35.8813 30.2318 36.6373C30.7134 37.1707 29.853 37.2225 29.853 37.7034C29.9216 38.1339 29.4386 38.066 29.2321 38.2543C28.6483 38.2025 28.3039 38.8395 27.9084 39.1483L26.962 40.234C25.7573 40.7317 24.6554 41.4548 23.6229 42.383C23.2099 42.5034 22.6765 42.4866 22.5043 43.0025C22.3664 43.2104 22.4182 43.4331 22.3839 43.6578C21.7644 44.2591 21.2821 44.9815 21.2653 45.8411C21.2814 46.4438 21.5404 46.9429 21.6783 47.4938L32.5012 47.4924C32.8624 47.2516 33.5841 47.2187 33.5323 46.5817C33.2754 46.203 32.6559 46.014 32.5341 45.5142C32.8281 45.2391 33.4133 45.4281 33.6527 45.0165C33.7745 42.1947 34.1532 39.3562 34.6006 36.6023C34.2043 33.574 33.5001 30.6837 32.6566 27.8451C32.4135 26.2669 32.0161 24.7164 31.4701 23.2159L31.5044 22.9233C32.8799 21.358 33.5687 19.4995 34.8939 17.8825C35.8739 15.9721 36.4591 13.8735 37.1129 11.8266C37.0443 11.3275 37.1829 10.708 36.6313 10.4497C36.0636 9.98559 35.3748 10.3293 34.7735 10.1228L24.57 3.89474C23.8455 3.68824 23.0496 4.73127 22.54 5.28848C22.4378 5.46278 22.7808 5.73509 23.0048 5.87299C23.8651 6.1138 24.0422 4.97347 24.626 4.54296C24.7093 4.49256 24.9725 4.47226 25.1328 4.57236V4.57236Z" fill="white"/>
<path fill-rule="evenodd" clip-rule="evenodd" d="M31.7459 19.174C31.3833 19.7417 30.9024 20.3444 30.3871 20.7735C30.2324 20.5845 30.0427 20.3948 30.0602 20.1197C30.6007 19.7678 31.1638 19.4518 31.7459 19.174V19.174ZM30.6441 46.9961C30.8163 47.2201 31.1131 47.2327 31.1992 47.4735L22.1193 47.4833C22.1193 47.4833 22.162 47.2712 22.2138 47.1347C22.6443 45.9125 23.6586 45.1033 24.6568 44.1925C25.2763 44.3648 25.7915 44.8282 26.4286 44.9829C27.8573 43.16 29.9041 41.7138 31.419 39.9435C30.782 42.1436 30.4032 44.6042 30.6441 46.9961V46.9961ZM42.412 48.6405C42.4132 48.2973 42.5507 47.9686 42.7942 47.7268C43.0378 47.485 43.3674 47.3498 43.7106 47.351C44.0537 47.3522 44.3824 47.4897 44.6242 47.7332C44.866 47.9768 45.0012 48.3064 45 48.6496C44.9994 48.8195 44.9653 48.9876 44.8997 49.1444C44.8342 49.3012 44.7383 49.4435 44.6178 49.5632C44.4972 49.6829 44.3542 49.7778 44.197 49.8422C44.0398 49.9067 43.8714 49.9396 43.7015 49.939C43.5315 49.9384 43.3634 49.9043 43.2066 49.8387C43.0499 49.7732 42.9075 49.6773 42.7878 49.5568C42.6681 49.4362 42.5733 49.2932 42.5088 49.136C42.4443 48.9788 42.4114 48.8104 42.412 48.6405V48.6405ZM44.7935 48.6405C44.7935 48.0132 44.3357 47.5204 43.7078 47.5204C43.0763 47.5204 42.615 48.0125 42.615 48.6405C42.615 49.2747 43.0756 49.7668 43.7078 49.7668C44.3357 49.7675 44.7935 49.2747 44.7935 48.6405ZM44.3532 49.3636H44.1411L43.728 48.6993H43.4039V49.3636H43.2261V47.9208H43.8576C44.2405 47.9208 44.37 48.0629 44.37 48.3023C44.37 48.5866 44.1719 48.6922 43.915 48.6985L44.3532 49.3636ZM43.6735 48.5585C43.8786 48.5585 44.1796 48.5928 44.1796 48.3002C44.1796 48.0734 43.9948 48.0475 43.817 48.0475H43.4039V48.5585H43.6735Z" fill="#1A3B73"/>
</svg>
