<svg width="20" height="20" viewBox="0 0 20 20" fill="none" xmlns="http://www.w3.org/2000/svg">
<g clip-path="url(#clip0)">
<path d="M6.77355 5.00673L7.99359 10.8503H6.2302L5.97019 9.59688H3.84346L3.09343 10.8503H1.14337L1.9534 9.59688L0 9.59354L5.76019 8.55018L5.57685 7.71015L5.42351 6.95679L5.1035 7.49014L5.47351 7.62681H3.22677L4.92016 5.01006L6.77355 5.00673ZM17.7972 5.00673H13.5371C13.5538 5.0234 13.5671 5.04673 13.5771 5.06673C13.5938 5.1134 13.6038 5.1634 13.6104 5.2134C13.6238 5.30007 13.6404 5.31007 13.6304 5.37674C13.6104 5.50341 13.5871 5.49008 13.5504 5.56675C13.5204 5.62675 13.4971 5.69008 13.4804 5.75342C13.4804 5.75675 13.4804 5.76009 13.4838 5.76009C13.4838 5.76009 13.4838 5.76009 13.4871 5.76009C13.5004 5.76009 13.5304 5.76342 13.5304 5.80675C13.5338 5.86342 13.4671 5.97343 13.4471 6.00676C13.4271 6.04009 13.3871 6.10343 13.3504 6.12343C13.2904 6.1601 13.2704 6.13676 13.2638 6.15676C13.2571 6.17677 13.1938 6.2901 13.1838 6.3201C13.1738 6.36011 13.1671 6.40011 13.1638 6.44344C13.1638 6.45011 13.1671 6.45344 13.1704 6.45677C13.2938 6.50344 13.6104 6.61678 13.6871 6.74678L12.6104 7.0968C12.7604 7.08013 12.9271 7.06013 13.0738 7.04013C13.2738 7.01679 13.5971 6.98013 13.7038 6.98346C13.7938 6.98679 13.8838 7.00013 13.9738 7.01679C14.1005 7.03346 14.2105 7.03679 14.3471 7.06679C14.4205 7.07679 14.4905 7.11013 14.5471 7.16013C14.5538 7.16346 14.5805 7.1868 14.5805 7.1868C14.7471 7.17346 15.0038 7.16013 15.0572 7.15346C15.0838 7.15013 15.1405 7.1468 15.1538 7.1468C15.6705 7.08013 15.9572 6.83345 16.2039 6.68345C16.4772 6.51678 16.8905 6.38011 17.1839 6.37344C17.5639 6.36344 17.8372 6.43011 18.0206 6.59345C18.2039 6.75678 18.2739 6.98013 18.2006 7.31014C18.1306 7.63015 18.0272 7.77682 17.7939 7.92349C17.5606 8.07016 17.2972 8.11683 16.9905 8.09016C16.4805 8.04349 16.0205 7.72348 15.8405 7.62015C15.6838 7.53014 15.4705 7.43681 15.2305 7.41347C15.1838 7.41014 15.1372 7.41014 15.0905 7.41347C15.0738 7.41347 14.8805 7.42681 14.7571 7.43681C14.7671 7.46681 14.7705 7.49681 14.7738 7.52681C14.7705 7.59014 14.7338 7.62015 14.6971 7.61348C14.6571 7.61015 14.5738 7.54348 14.5471 7.49014C14.5438 7.48347 14.5371 7.48347 14.5371 7.49014C14.5371 7.49681 14.5371 7.51014 14.5371 7.51681C14.5338 7.53348 14.5238 7.58681 14.4871 7.59681C14.4471 7.60348 14.4071 7.59348 14.3738 7.57014C14.3638 7.56348 14.3538 7.56681 14.3471 7.57348C14.3471 7.57348 14.3471 7.57681 14.3438 7.57681C14.3305 7.61348 14.3238 7.63681 14.2505 7.62348C14.2005 7.61681 14.2105 7.63681 14.1805 7.64348C14.1038 7.65681 14.0671 7.61681 14.0071 7.59014C13.9471 7.56348 13.9671 7.50348 13.9071 7.49348C13.8938 7.49014 13.8738 7.48681 13.8638 7.48681C13.9071 7.63015 13.9404 7.77682 13.9604 7.92682C13.9604 7.93349 13.9571 7.93682 13.9504 7.93682L13.8871 7.94349C13.8804 7.94349 13.8771 7.94682 13.8771 7.95349C13.8938 8.03349 13.9304 8.1835 13.9404 8.29017C13.9571 8.48351 13.9538 8.54351 13.9404 8.64018C13.9404 8.64685 13.9438 8.65018 13.9504 8.65018H13.9538C13.9805 8.64685 14.0038 8.63685 14.0238 8.62351C14.0271 8.58351 14.0338 8.54684 14.0471 8.51017C14.0538 8.50017 14.0605 8.49351 14.0671 8.48684C14.0738 8.48017 14.0771 8.47351 14.0771 8.46684L14.0938 8.41017C14.0971 8.40017 14.1005 8.3935 14.1038 8.38684L14.1871 8.2335C14.1871 8.2335 14.2071 8.1935 14.2405 8.20016C14.2738 8.21683 14.2938 8.25017 14.2971 8.29017C14.2938 8.33684 14.2771 8.38017 14.2571 8.42017L14.2938 8.47684C14.3371 8.48684 14.3838 8.48017 14.4205 8.45351C14.4405 8.44017 14.4571 8.42684 14.4738 8.41351C14.4571 8.37017 14.4971 8.31684 14.5971 8.33684C14.6338 8.35017 14.7338 8.43017 14.6071 8.51351C14.6038 8.51351 14.6038 8.51684 14.6038 8.52018C14.6038 8.52351 14.6071 8.52351 14.6105 8.52351C14.7471 8.51351 14.7305 8.68018 14.6371 8.73018C14.6305 8.73352 14.6271 8.74352 14.6305 8.75018C14.6305 8.75018 14.6305 8.75018 14.6305 8.75352C14.6505 8.78018 14.6605 8.81018 14.6605 8.84352C14.6605 8.84352 14.6605 8.88685 14.5271 8.93352C14.5271 8.93352 14.4871 8.95019 14.5038 8.98019C14.5205 8.98686 14.5371 8.99352 14.5605 9.00019C14.5605 9.00019 14.6805 9.02686 14.6571 9.09353C14.6571 9.09353 14.6371 9.1502 14.5238 9.11353C14.4871 9.11686 14.4505 9.11353 14.4138 9.11019C14.3438 9.13353 14.2705 9.1502 14.1971 9.16353C14.1738 9.16686 14.1505 9.1802 14.1371 9.2002C14.0638 9.28353 13.8371 9.4002 13.7371 9.40354C13.6271 9.40354 13.6104 9.31687 13.5304 9.23353C13.3704 9.06686 13.3438 8.86019 13.3204 8.65351C13.3204 8.64685 13.3138 8.64351 13.3071 8.64351C13.3004 8.64351 13.2971 8.64685 13.2971 8.65351C13.2704 8.89352 13.2538 9.11019 13.1204 9.2302C13.0404 9.30353 12.9104 9.3602 12.7037 9.4102C11.9204 9.59688 11.0737 10.0769 11.1704 10.1869C11.207 10.2302 11.297 10.1436 11.4504 10.0736C12.0337 9.80355 12.7937 9.75021 13.0371 9.77022C13.0538 9.77022 13.0704 9.78688 13.0704 9.80355C13.0771 9.86355 13.0904 9.92022 13.1071 9.97689C13.1271 10.0536 13.1538 10.1869 13.2338 10.2636C13.3804 10.4002 13.3604 10.4502 13.3238 10.6336C13.3004 10.7536 13.4638 10.8536 13.4704 10.8569H15.1572L15.4105 9.61021H17.1239C18.8739 9.61021 19.6506 8.81018 19.9506 7.28014C20.0906 6.55344 20.084 5.00673 17.7972 5.00673ZM10.2737 10.8469C10.297 10.8202 10.3237 10.7902 10.357 10.7602C10.4303 10.6836 10.3737 10.4936 10.387 10.4202C10.407 10.3236 10.5737 10.2736 10.597 10.1802C10.6337 10.0502 10.377 10.0736 10.5003 9.93689C10.577 9.85355 10.687 9.88022 10.6803 9.79688C10.667 9.66021 10.8003 9.57021 10.857 9.52687C11.1004 9.34353 11.6437 9.05353 11.9737 8.95686C12.3204 8.85685 11.8437 8.86685 11.4504 9.01019C11.0937 9.14019 11.9137 8.62685 12.5637 8.46351C13.0271 8.34684 12.2237 8.3235 11.4837 8.65018C11.2504 8.75352 11.117 8.81685 11.0237 8.87685C11.0204 8.87685 11.0204 8.87685 11.017 8.87685V8.87352C11.0537 8.80018 11.1304 8.67018 11.107 8.53684C11.0904 8.45351 11.1004 8.3635 11.137 8.28683C11.1637 8.2335 11.147 8.09349 11.1804 8.01683C11.1837 8.01016 11.1904 8.01016 11.197 8.01016L11.5937 8.1335L13.1471 7.60348L11.6704 7.82349L11.1504 7.38681C11.077 7.31014 11.0037 7.00679 11.077 6.89346C11.1537 6.77679 11.2437 6.66678 11.3437 6.56678C11.4137 6.50678 11.627 6.48011 11.7304 6.42677C11.847 6.36677 11.9404 6.40677 12.0271 6.39344C12.1171 6.37011 12.2071 6.34344 12.2971 6.3101C12.3004 6.3101 12.3004 6.30677 12.3004 6.30344C12.3004 6.2701 12.2971 6.23343 12.2904 6.2001C12.2671 6.10676 12.2571 6.01343 12.2637 5.91676C12.2737 5.82342 12.3537 5.74342 12.3571 5.68342C12.3604 5.62341 12.3171 5.56008 12.3504 5.50008C12.3804 5.44341 12.3904 5.40007 12.4271 5.2834C12.4171 5.2134 12.3737 5.19007 12.4071 5.11673C12.4237 5.08006 12.4537 5.02673 12.4637 5.00006H7.06356L7.37357 6.48011H9.50031L9.26697 7.61681H10.8704L7.59691 8.21017L9.14363 8.20683L8.60361 10.8403H10.2737V10.8469ZM15.9738 7.46347C16.0005 7.47681 16.0338 7.46347 16.0472 7.43681C16.0505 7.42681 16.0539 7.41681 16.0539 7.40681C16.0572 7.26013 16.0805 7.19347 16.1139 7.07346C16.1272 7.02679 16.0872 6.98679 16.0472 7.01013C15.8105 7.14013 15.6338 7.19347 15.5305 7.2168C15.5138 7.22013 15.5005 7.2368 15.5005 7.25347C15.5005 7.27013 15.5072 7.28347 15.5238 7.29013C15.6772 7.33014 15.8305 7.39014 15.9738 7.46347Z" fill="#47A31C"/>
<path d="M9.37692 11.8369H8.39355L8.49022 11.3702H11.007L10.9036 11.8369H9.92027L9.40025 14.3337H8.85024L9.37692 11.8369Z" fill="#47A31C"/>
<path d="M14.1202 13.3603C14.1235 13.2536 14.1335 13.147 14.1569 13.0436L14.5069 11.3702H15.0569L14.7069 13.0336C14.6902 13.1203 14.6769 13.207 14.6735 13.297C14.6702 13.7003 14.9435 13.8937 15.3636 13.8937C15.8336 13.8937 16.1569 13.637 16.2869 13.0303L16.6336 11.3702H17.177L16.8236 13.067C16.6403 13.9403 16.1036 14.3737 15.3069 14.3737C14.5769 14.377 14.1135 13.987 14.1202 13.3603Z" fill="#47A31C"/>
<path d="M19.1205 13.3936L19.6405 14.3336H19.0572L18.5772 13.4636H17.7671L17.5905 14.3303H17.0371L17.6571 11.3669H18.8805C19.5972 11.3669 20.0039 11.6969 19.9972 12.2602C19.9939 12.8403 19.6672 13.2436 19.1205 13.3936ZM19.4439 12.3136C19.4472 11.9902 19.2205 11.8336 18.8172 11.8336H18.1138L17.8638 13.0103H18.5938C19.1272 13.0136 19.4372 12.7703 19.4439 12.3136Z" fill="#47A31C"/>
<path d="M13.8232 12.8503C13.7932 13.0503 13.7332 13.2436 13.6466 13.427C13.5499 13.627 13.4165 13.8037 13.2532 13.9503C13.0899 14.097 12.8965 14.207 12.6899 14.277C12.4999 14.3403 12.2998 14.3737 12.0998 14.3737C11.9065 14.377 11.7165 14.3437 11.5365 14.277C11.3531 14.2103 11.1931 14.097 11.0665 13.9503C10.9431 13.8003 10.8598 13.6203 10.8231 13.427C10.7898 13.237 10.7865 13.0403 10.8165 12.8503C10.8465 12.6503 10.9031 12.4569 10.9898 12.2736C11.0865 12.0736 11.2198 11.8969 11.3865 11.7503C11.5498 11.6036 11.7432 11.4936 11.9498 11.4236C12.1398 11.3602 12.3398 11.3269 12.5399 11.3302C12.7332 11.3269 12.9232 11.3602 13.1065 11.4269C13.2899 11.4936 13.4499 11.6036 13.5766 11.7536C13.6999 11.9036 13.7832 12.0836 13.8199 12.2769C13.8499 12.4636 13.8499 12.657 13.8232 12.8503ZM13.2765 12.8503C13.3165 12.5603 13.2899 12.2903 13.1499 12.1003C13.0765 12.0036 12.9799 11.9269 12.8665 11.8803C12.7399 11.8303 12.6065 11.8036 12.4699 11.8069C12.3265 11.8069 12.1865 11.8303 12.0532 11.8803C11.9232 11.9303 11.8065 12.0069 11.7065 12.1036C11.5132 12.2936 11.4065 12.5636 11.3631 12.8536C11.3231 13.1403 11.3498 13.4136 11.4898 13.6003C11.5632 13.697 11.6598 13.7737 11.7732 13.8203C11.8998 13.8703 12.0332 13.897 12.1698 13.8937C12.3132 13.8937 12.4532 13.8703 12.5865 13.8203C12.7165 13.7703 12.8332 13.697 12.9332 13.6003C13.1265 13.4103 13.2299 13.137 13.2765 12.8503Z" fill="#47A31C"/>
<path d="M19.3037 10.6036H19.207L19.2204 10.547H19.4837L19.4704 10.6036H19.3737L19.3237 10.8503H19.2537L19.3037 10.6036ZM19.8571 10.547L19.797 10.847H19.7304L19.767 10.667L19.6537 10.8136H19.6237L19.5637 10.6636L19.527 10.8436H19.4604L19.5204 10.5436H19.577L19.6537 10.7303L19.8004 10.5436L19.8571 10.547Z" fill="#47A31C"/>
<path d="M19.8838 10.347H18.9971V10.9403H19.8838V10.347Z" fill="#47A31C"/>
</g>
<defs>
<clipPath id="clip0">
<rect width="20" height="20" fill="white"/>
</clipPath>
</defs>
</svg>
