<svg width="20" height="20" viewBox="0 0 20 20" fill="none" xmlns="http://www.w3.org/2000/svg">
<g clip-path="url(#clip0)">
<path d="M6.77355 5.00667L7.99359 10.8502H6.2302L5.97019 9.59682H3.84346L3.09343 10.8502H1.14337L1.9534 9.59682L0 9.59348L5.76019 8.55011L5.57685 7.71009L5.42351 6.95673L5.1035 7.49008L5.47351 7.62675H3.22677L4.92016 5.01L6.77355 5.00667ZM17.7972 5.00667H13.5371C13.5538 5.02333 13.5671 5.04667 13.5771 5.06667C13.5938 5.11334 13.6038 5.16334 13.6104 5.21334C13.6238 5.30001 13.6404 5.31001 13.6304 5.37668C13.6104 5.50335 13.5871 5.49002 13.5504 5.56669C13.5204 5.62669 13.4971 5.69002 13.4804 5.75336C13.4804 5.75669 13.4804 5.76002 13.4838 5.76002C13.4838 5.76002 13.4838 5.76002 13.4871 5.76002C13.5004 5.76002 13.5304 5.76336 13.5304 5.80669C13.5338 5.86336 13.4671 5.97336 13.4471 6.0067C13.4271 6.04003 13.3871 6.10337 13.3504 6.12337C13.2904 6.16004 13.2704 6.1367 13.2638 6.1567C13.2571 6.1767 13.1938 6.29004 13.1838 6.32004C13.1738 6.36004 13.1671 6.40005 13.1638 6.44338C13.1638 6.45005 13.1671 6.45338 13.1704 6.45671C13.2938 6.50338 13.6104 6.61672 13.6871 6.74672L12.6104 7.09673C12.7604 7.08007 12.9271 7.06007 13.0738 7.04007C13.2738 7.01673 13.5971 6.98006 13.7038 6.9834C13.7938 6.98673 13.8838 7.00006 13.9738 7.01673C14.1005 7.0334 14.2105 7.03673 14.3471 7.06673C14.4205 7.07673 14.4905 7.11007 14.5471 7.16007C14.5538 7.1634 14.5805 7.18674 14.5805 7.18674C14.7471 7.1734 15.0038 7.16007 15.0572 7.1534C15.0838 7.15007 15.1405 7.14674 15.1538 7.14674C15.6705 7.08007 15.9572 6.83339 16.2039 6.68339C16.4772 6.51672 16.8905 6.38004 17.1839 6.37338C17.5639 6.36338 17.8372 6.43005 18.0206 6.59338C18.2039 6.75672 18.2739 6.98006 18.2006 7.31007C18.1306 7.63009 18.0272 7.77676 17.7939 7.92343C17.5606 8.0701 17.2972 8.11677 16.9905 8.0901C16.4805 8.04343 16.0205 7.72342 15.8405 7.62009C15.6838 7.53008 15.4705 7.43675 15.2305 7.41341C15.1838 7.41008 15.1372 7.41008 15.0905 7.41341C15.0738 7.41341 14.8805 7.42675 14.7571 7.43675C14.7671 7.46675 14.7705 7.49675 14.7738 7.52675C14.7705 7.59008 14.7338 7.62009 14.6971 7.61342C14.6571 7.61008 14.5738 7.54342 14.5471 7.49008C14.5438 7.48341 14.5371 7.48341 14.5371 7.49008C14.5371 7.49675 14.5371 7.51008 14.5371 7.51675C14.5338 7.53342 14.5238 7.58675 14.4871 7.59675C14.4471 7.60342 14.4071 7.59342 14.3738 7.57008C14.3638 7.56342 14.3538 7.56675 14.3471 7.57342C14.3471 7.57342 14.3471 7.57675 14.3438 7.57675C14.3305 7.61342 14.3238 7.63675 14.2505 7.62342C14.2005 7.61675 14.2105 7.63675 14.1805 7.64342C14.1038 7.65675 14.0671 7.61675 14.0071 7.59008C13.9471 7.56342 13.9671 7.50341 13.9071 7.49341C13.8938 7.49008 13.8738 7.48675 13.8638 7.48675C13.9071 7.63009 13.9404 7.77676 13.9604 7.92676C13.9604 7.93343 13.9571 7.93676 13.9504 7.93676L13.8871 7.94343C13.8804 7.94343 13.8771 7.94676 13.8771 7.95343C13.8938 8.03343 13.9304 8.18344 13.9404 8.29011C13.9571 8.48345 13.9538 8.54345 13.9404 8.64012C13.9404 8.64678 13.9438 8.65012 13.9504 8.65012H13.9538C13.9805 8.64678 14.0038 8.63678 14.0238 8.62345C14.0271 8.58345 14.0338 8.54678 14.0471 8.51011C14.0538 8.50011 14.0605 8.49345 14.0671 8.48678C14.0738 8.48011 14.0771 8.47345 14.0771 8.46678L14.0938 8.41011C14.0971 8.40011 14.1005 8.39344 14.1038 8.38678L14.1871 8.23344C14.1871 8.23344 14.2071 8.19344 14.2405 8.2001C14.2738 8.21677 14.2938 8.25011 14.2971 8.29011C14.2938 8.33677 14.2771 8.38011 14.2571 8.42011L14.2938 8.47678C14.3371 8.48678 14.3838 8.48011 14.4205 8.45345C14.4405 8.44011 14.4571 8.42678 14.4738 8.41344C14.4571 8.37011 14.4971 8.31677 14.5971 8.33677C14.6338 8.35011 14.7338 8.43011 14.6071 8.51345C14.6038 8.51345 14.6038 8.51678 14.6038 8.52011C14.6038 8.52345 14.6071 8.52345 14.6105 8.52345C14.7471 8.51345 14.7305 8.68012 14.6371 8.73012C14.6305 8.73345 14.6271 8.74345 14.6305 8.75012C14.6305 8.75012 14.6305 8.75012 14.6305 8.75345C14.6505 8.78012 14.6605 8.81012 14.6605 8.84346C14.6605 8.84346 14.6605 8.88679 14.5271 8.93346C14.5271 8.93346 14.4871 8.95013 14.5038 8.98013C14.5205 8.9868 14.5371 8.99346 14.5605 9.00013C14.5605 9.00013 14.6805 9.0268 14.6571 9.09347C14.6571 9.09347 14.6371 9.15013 14.5238 9.11347C14.4871 9.1168 14.4505 9.11347 14.4138 9.11013C14.3438 9.13347 14.2705 9.15013 14.1971 9.16347C14.1738 9.1668 14.1505 9.18014 14.1371 9.20014C14.0638 9.28347 13.8371 9.40014 13.7371 9.40348C13.6271 9.40348 13.6104 9.31681 13.5304 9.23347C13.3704 9.0668 13.3438 8.86013 13.3204 8.65345C13.3204 8.64678 13.3138 8.64345 13.3071 8.64345C13.3004 8.64345 13.2971 8.64678 13.2971 8.65345C13.2704 8.89346 13.2538 9.11013 13.1204 9.23014C13.0404 9.30347 12.9104 9.36014 12.7037 9.41014C11.9204 9.59682 11.0737 10.0768 11.1704 10.1868C11.207 10.2302 11.297 10.1435 11.4504 10.0735C12.0337 9.80349 12.7937 9.75015 13.0371 9.77015C13.0538 9.77015 13.0704 9.78682 13.0704 9.80349C13.0771 9.86349 13.0904 9.92016 13.1071 9.97683C13.1271 10.0535 13.1538 10.1868 13.2338 10.2635C13.3804 10.4002 13.3604 10.4502 13.3238 10.6335C13.3004 10.7535 13.4638 10.8535 13.4704 10.8569H15.1572L15.4105 9.61015H17.1239C18.8739 9.61015 19.6506 8.81012 19.9506 7.28007C20.0906 6.55338 20.084 5.00667 17.7972 5.00667ZM10.2737 10.8469C10.297 10.8202 10.3237 10.7902 10.357 10.7602C10.4303 10.6835 10.3737 10.4935 10.387 10.4202C10.407 10.3235 10.5737 10.2735 10.597 10.1802C10.6337 10.0502 10.377 10.0735 10.5003 9.93683C10.577 9.85349 10.687 9.88016 10.6803 9.79682C10.667 9.66015 10.8003 9.57015 10.857 9.52681C11.1004 9.34347 11.6437 9.05346 11.9737 8.95679C12.3204 8.85679 11.8437 8.86679 11.4504 9.01013C11.0937 9.14013 11.9137 8.62678 12.5637 8.46345C13.0271 8.34678 12.2237 8.32344 11.4837 8.65012C11.2504 8.75345 11.117 8.81679 11.0237 8.87679C11.0204 8.87679 11.0204 8.87679 11.017 8.87679V8.87346C11.0537 8.80012 11.1304 8.67012 11.107 8.53678C11.0904 8.45345 11.1004 8.36344 11.137 8.28677C11.1637 8.23344 11.147 8.09343 11.1804 8.01676C11.1837 8.0101 11.1904 8.0101 11.197 8.0101L11.5937 8.13343L13.1471 7.60342L11.6704 7.82342L11.1504 7.38674C11.077 7.31008 11.0037 7.00673 11.077 6.89339C11.1537 6.77672 11.2437 6.66672 11.3437 6.56672C11.4137 6.50672 11.627 6.48005 11.7304 6.42671C11.847 6.36671 11.9404 6.40671 12.0271 6.39338C12.1171 6.37004 12.2071 6.34338 12.2971 6.31004C12.3004 6.31004 12.3004 6.30671 12.3004 6.30338C12.3004 6.27004 12.2971 6.23337 12.2904 6.20004C12.2671 6.1067 12.2571 6.01337 12.2637 5.9167C12.2737 5.82336 12.3537 5.74336 12.3571 5.68336C12.3604 5.62335 12.3171 5.56002 12.3504 5.50002C12.3804 5.44335 12.3904 5.40001 12.4271 5.28334C12.4171 5.21334 12.3737 5.19001 12.4071 5.11667C12.4237 5.08 12.4537 5.02667 12.4637 5H7.06356L7.37357 6.48005H9.50031L9.26697 7.61675H10.8704L7.59691 8.2101L9.14363 8.20677L8.60361 10.8402H10.2737V10.8469ZM15.9738 7.46341C16.0005 7.47675 16.0338 7.46341 16.0472 7.43675C16.0505 7.42675 16.0539 7.41674 16.0539 7.40674C16.0572 7.26007 16.0805 7.1934 16.1139 7.0734C16.1272 7.02673 16.0872 6.98673 16.0472 7.01007C15.8105 7.14007 15.6338 7.1934 15.5305 7.21674C15.5138 7.22007 15.5005 7.23674 15.5005 7.25341C15.5005 7.27007 15.5072 7.28341 15.5238 7.29007C15.6772 7.33008 15.8305 7.39008 15.9738 7.46341Z" fill="white"/>
<path d="M9.37692 11.8368H8.39355L8.49022 11.3701H11.007L10.9036 11.8368H9.92027L9.40025 14.3335H8.85024L9.37692 11.8368Z" fill="white"/>
<path d="M14.1202 13.3602C14.1235 13.2535 14.1335 13.1468 14.1569 13.0435L14.5069 11.3701H15.0569L14.7069 13.0335C14.6902 13.1202 14.6769 13.2068 14.6735 13.2968C14.6702 13.7002 14.9435 13.8935 15.3636 13.8935C15.8336 13.8935 16.1569 13.6369 16.2869 13.0302L16.6336 11.3701H17.177L16.8236 13.0668C16.6403 13.9402 16.1036 14.3735 15.3069 14.3735C14.5769 14.3769 14.1135 13.9869 14.1202 13.3602Z" fill="white"/>
<path d="M19.1205 13.3936L19.6405 14.3336H19.0572L18.5772 13.4636H17.7671L17.5905 14.3303H17.0371L17.6571 11.3668H18.8805C19.5972 11.3668 20.0039 11.6968 19.9972 12.2602C19.9939 12.8402 19.6672 13.2435 19.1205 13.3936ZM19.4439 12.3135C19.4472 11.9902 19.2205 11.8335 18.8172 11.8335H18.1138L17.8638 13.0102H18.5938C19.1272 13.0135 19.4372 12.7702 19.4439 12.3135Z" fill="white"/>
<path d="M13.8232 12.8502C13.7932 13.0502 13.7332 13.2436 13.6466 13.4269C13.5499 13.6269 13.4165 13.8036 13.2532 13.9503C13.0899 14.0969 12.8965 14.2069 12.6899 14.2769C12.4999 14.3403 12.2998 14.3736 12.0998 14.3736C11.9065 14.3769 11.7165 14.3436 11.5365 14.2769C11.3531 14.2103 11.1931 14.0969 11.0665 13.9503C10.9431 13.8003 10.8598 13.6203 10.8231 13.4269C10.7898 13.2369 10.7865 13.0402 10.8165 12.8502C10.8465 12.6502 10.9031 12.4569 10.9898 12.2735C11.0865 12.0735 11.2198 11.8969 11.3865 11.7502C11.5498 11.6035 11.7432 11.4935 11.9498 11.4235C12.1398 11.3602 12.3398 11.3269 12.5399 11.3302C12.7332 11.3269 12.9232 11.3602 13.1065 11.4269C13.2899 11.4935 13.4499 11.6035 13.5766 11.7535C13.6999 11.9035 13.7832 12.0835 13.8199 12.2769C13.8499 12.4636 13.8499 12.6569 13.8232 12.8502ZM13.2765 12.8502C13.3165 12.5602 13.2899 12.2902 13.1499 12.1002C13.0765 12.0035 12.9799 11.9269 12.8665 11.8802C12.7399 11.8302 12.6065 11.8035 12.4699 11.8069C12.3265 11.8069 12.1865 11.8302 12.0532 11.8802C11.9232 11.9302 11.8065 12.0069 11.7065 12.1035C11.5132 12.2935 11.4065 12.5636 11.3631 12.8536C11.3231 13.1402 11.3498 13.4136 11.4898 13.6003C11.5632 13.6969 11.6598 13.7736 11.7732 13.8203C11.8998 13.8703 12.0332 13.8969 12.1698 13.8936C12.3132 13.8936 12.4532 13.8703 12.5865 13.8203C12.7165 13.7703 12.8332 13.6969 12.9332 13.6003C13.1265 13.4103 13.2299 13.1369 13.2765 12.8502Z" fill="white"/>
<path d="M19.3037 10.6036H19.207L19.2204 10.5469H19.4837L19.4704 10.6036H19.3737L19.3237 10.8503H19.2537L19.3037 10.6036ZM19.8571 10.5469L19.797 10.8469H19.7304L19.767 10.6669L19.6537 10.8136H19.6237L19.5637 10.6636L19.527 10.8436H19.4604L19.5204 10.5436H19.577L19.6537 10.7303L19.8004 10.5436L19.8571 10.5469Z" fill="white"/>
<path d="M19.8838 10.3469H18.9971V10.9403H19.8838V10.3469Z" fill="white"/>
</g>
<defs>
<clipPath id="clip0">
<rect width="20" height="20" fill="white"/>
</clipPath>
</defs>
</svg>
