<svg width="20" height="20" viewBox="0 0 20 20" fill="none" xmlns="http://www.w3.org/2000/svg">
<path fill-rule="evenodd" clip-rule="evenodd" d="M6.25849 5.00174C9.27691 4.95425 11.264 5.88815 13.3084 6.79161C13.7942 7.0059 14.2532 7.25064 14.6964 7.50999C14.8474 7.59887 15.1445 7.67802 15.2322 7.82656C15.2553 7.86674 15.2529 7.88623 15.2444 7.93615C15.22 7.95685 15.1956 7.97633 15.1713 7.99703C14.9826 8.03599 14.6392 7.79978 14.4651 7.72916C13.877 7.52216 13.2877 7.31517 12.6996 7.10818C11.566 6.75386 10.3861 6.52252 9.10766 6.29239C8.6121 6.24734 8.11776 6.20351 7.6222 6.15846C7.46391 6.15846 7.30562 6.15846 7.14733 6.15846C6.65299 6.08662 5.98818 6.16089 5.52793 6.24369C3.78433 6.55783 2.17588 7.16054 1.26634 8.28925C0.997251 8.62287 0.715986 8.94919 0.487078 9.32421C0.398193 9.47032 0.308091 9.79176 0.158327 9.87213C0.133975 9.87578 0.109623 9.88065 0.0852711 9.8843C0.0572663 9.8636 0.028044 9.84412 3.9281e-05 9.82342C-0.00483111 9.35343 0.444462 8.6667 0.645366 8.33795C1.47942 6.97546 2.63735 5.8845 4.29816 5.35484C4.70849 5.22456 5.14195 5.14907 5.60099 5.06262C5.82015 5.04314 6.03932 5.02244 6.25849 5.00174Z" fill="#01835E"/>
<path fill-rule="evenodd" clip-rule="evenodd" d="M17.6925 7.01074C18.7275 6.99491 19.525 7.59397 19.8355 8.31357C20.2227 9.21216 19.8781 10.3652 19.3119 10.8218C18.2319 11.6912 16.8244 11.5171 16.0975 10.4322C15.927 10.1777 15.6591 9.74912 15.7687 9.312C16.0622 9.11475 16.5334 9.31322 16.7793 9.42159C17.393 9.69189 18.35 10.4188 19.1536 9.85992C19.6784 9.49464 19.8416 8.67398 19.4093 8.08223C19.1013 7.66094 18.5643 7.37602 17.9847 7.22991C17.7936 7.20191 17.6036 7.17268 17.4125 7.14468C17.4125 7.12885 17.4125 7.1118 17.4125 7.09598C17.421 7.0838 17.4283 7.07162 17.4368 7.05945C17.5221 7.04362 17.6073 7.02779 17.6925 7.01074Z" fill="#FFE600"/>
<path fill-rule="evenodd" clip-rule="evenodd" d="M17.3139 7.29083C18.1321 7.34806 18.8042 7.63054 19.1524 8.15533C19.48 8.64845 19.2937 9.35709 18.8846 9.62862C18.5972 9.81978 18.0773 9.79299 17.74 9.66515C17.119 9.43015 16.6137 8.96381 15.7432 9.09288C15.8832 8.271 16.1998 7.67072 16.8634 7.38824C16.9961 7.33223 17.1617 7.34928 17.3139 7.29083Z" fill="#FFE600"/>
<path fill-rule="evenodd" clip-rule="evenodd" d="M3.39683 8.63016C3.39683 9.7954 3.39683 10.9594 3.39683 12.1247C3.39683 12.6555 3.46745 13.3447 3.2629 13.6832C3.01938 14.0862 2.57008 14.1982 1.91136 14.1946C1.91136 12.8516 1.91136 11.5073 1.91136 10.1643C1.91136 9.83315 1.83952 8.8822 1.98442 8.71539C2.11592 8.56563 3.08269 8.62773 3.39683 8.63016Z" fill="#01835E"/>
<path fill-rule="evenodd" clip-rule="evenodd" d="M7.41505 9.67728C7.41505 10.5868 7.41505 11.4952 7.41505 12.4047C7.41505 12.9185 7.44792 13.4409 7.24458 13.7441C7.00228 14.1057 6.54446 14.1982 5.92958 14.1946C5.92958 12.6884 5.92958 11.1834 5.92958 9.67728C5.34148 9.67728 4.75216 9.67728 4.16406 9.67728C4.16406 9.66511 4.16406 9.65293 4.16406 9.64075C4.25173 9.36558 4.26391 8.81644 4.49281 8.67885C4.69859 8.55466 5.53021 8.63015 5.85652 8.63015C7.02542 8.63015 8.19431 8.63015 9.3632 8.63015C9.28649 8.88706 9.28893 9.29617 9.14403 9.50682C8.96627 9.76738 7.88382 9.68459 7.41505 9.67728Z" fill="#01835E"/>
<path fill-rule="evenodd" clip-rule="evenodd" d="M11.579 9.67733C11.579 10.067 11.579 10.4566 11.579 10.8462C12.1427 10.8462 12.7077 10.8462 13.2715 10.8462C13.2264 11.0009 13.1826 11.1543 13.1375 11.3089C13.0925 11.4465 13.0486 11.5853 13.0036 11.7229C12.8112 12.0017 12.0307 11.9141 11.5668 11.9055C11.5814 13.4409 11.6776 14.2092 10.0935 14.1946C10.0935 12.8151 10.0935 11.4343 10.0935 10.0548C10.0935 9.72117 10.0205 8.80066 10.2031 8.6789C10.3979 8.54862 10.9617 8.6302 11.2502 8.6302C12.1549 8.6302 13.0608 8.6302 13.9655 8.6302C13.9217 8.89929 13.7853 9.45695 13.588 9.5921C13.3116 9.78205 12.0526 9.6822 11.579 9.67733Z" fill="#01835E"/>
</svg>
